<svg version="1.2" xmlns="http://www.w3.org/2000/svg" viewBox="0 0 230 100" width="230" height="100">
	<style>
		.s0 { opacity: .92;fill: #000000 } 
	</style>
	<path id="Path 0" fill-rule="evenodd" class="s0" d="m16.5 16.49c-1.65 0.8-3.56 2.59-4.25 3.98-0.75 1.51-1.25 6.55-1.25 12.53 0 9.78 0.07 10.07 3 13 2.94 2.94 3.2 3 13.25 3.01 6.98 0 10.89-0.43 12.25-1.35 1.1-0.74 2.59-2.66 3.31-4.26 0.89-1.94 1.22-6.11 1-12.63-0.28-8.84-0.54-9.95-2.81-12.19-1.38-1.35-3.74-2.71-5.25-3.02l-2.75-0.56v16h-11c0-13.75-0.35-15.99-1.25-15.98-0.69 0.02-2.6 0.68-4.25 1.47zm191.5 18.01v6.5c8.53 0 11-0.45 11-1 0-0.55-1.8-1-4-1-3.33 0-4-0.33-4-2 0-1.62 0.67-2 3.5-2 1.93 0 3.5-0.45 3.5-1 0-0.55-1.57-1-3.5-1-2.44 0-3.5-0.45-3.5-1.5 0-1.08 1.11-1.5 4-1.5 2.2 0 4-0.45 4-1 0-0.55-2.47-1-5.5-1h-5.5zm-194 20.42c-2.73 2.81-2.85 3.33-2.92 13-0.05 6.2 0.4 11.06 1.17 12.62 0.69 1.39 2.71 3.19 4.5 4 1.79 0.8 3.7 1.24 4.25 0.96 0.55-0.28 1-3.87 1-8v-7.5h10l0.5 15.5c4.65-0.37 7.13-1.62 8.5-3.01 2.27-2.29 2.53-3.45 2.81-12.26 0.22-6.52-0.11-10.69-1-12.63-0.72-1.6-2.21-3.52-3.31-4.26-1.37-0.93-5.28-1.35-12.33-1.35-10.09 0.01-10.39 0.08-13.17 2.93zm36.31-36.51c-2.77 2.38-2.81 2.58-2.81 13.59 0 10.94 0.06 11.22 2.75 13.59 2.55 2.23 3.55 2.41 13.75 2.41 10.01 0 11.22-0.2 13.46-2.25 1.36-1.24 2.71-3.49 3-5l0.54-2.75-15.5-0.5-0.5-10.5 16.5 0.05c-1.16-5.08-2.62-7.56-4-8.8-2.27-2.04-3.5-2.25-13.44-2.25-10.12 0-11.15 0.18-13.75 2.41zm59.05 9.4c-1.02 0.22-2.44 0.92-3.15 1.55-0.72 0.63-1.28 2.83-1.25 4.89 0.02 2.06 0.71 4.42 1.54 5.25 0.83 0.82 3.04 1.5 4.93 1.5 1.88 0 4.13-0.68 5-1.5 0.86-0.83 1.59-3.19 1.61-5.25 0.03-2.06-0.53-4.25-1.25-4.86-0.71-0.6-2.25-1.3-3.43-1.54-1.17-0.24-2.97-0.26-4-0.04zm-0.82 2.81c0.48-0.39 2.02-0.58 3.42-0.42 2.1 0.25 2.6 0.9 2.87 3.8 0.25 2.65-0.11 3.69-1.5 4.28-1.01 0.42-2.62 0.53-3.58 0.25q-1.75-0.54-1.92-3.86c-0.09-1.84 0.23-3.66 0.71-4.05zm14.41-2.51c-1.58 0.57-2.26 1.55-2.16 3.11 0.11 1.64 1.28 2.77 4.18 4.03 2.22 0.96 3.81 2.2 3.53 2.75-0.28 0.55-1.17 1-2 1-0.83 0-2.38-0.56-3.45-1.25-1.08-0.69-2.31-0.92-2.75-0.52-0.44 0.4-0.13 1.43 0.7 2.29 0.83 0.86 2.93 1.55 4.68 1.52 1.75-0.02 3.88-0.72 4.75-1.54 0.86-0.83 1.56-1.84 1.55-2.25 0-0.41-0.34-1.31-0.75-1.99-0.4-0.69-2.04-1.59-3.63-2-1.6-0.42-3.18-1.41-3.5-2.2-0.49-1.17 0.11-1.31 3.15-0.75 2.77 0.51 3.66 0.36 3.4-0.56-0.19-0.69-1.48-1.52-2.87-1.85-1.39-0.34-3.56-0.24-4.83 0.21zm-31.95 6.39c0 3.67 0.44 6.5 1 6.5 0.55 0 1.11-1.24 1.25-2.75 0.2-2.2 0.8-2.8 3-3 2.44-0.22 2.75 0.08 2.75 2.75q0 3 1.5 3c1.18 0 1.5-1.39 1.5-6.5 0-5.11-0.32-6.5-1.5-6.5-0.93 0-1.5 0.94-1.5 2.5 0 2.11-0.47 2.5-3 2.5-2.53 0-3-0.39-3-2.5 0-1.38-0.45-2.5-1-2.5-0.56 0-1 2.83-1 6.5zm43.05-0.05c-0.04 5.18 0.26 6.55 1.45 6.55 0.93 0 1.5-0.94 1.5-2.5 0-2.18 0.48-2.53 3.75-2.75 3.57-0.24 3.75-0.42 3.75-3.75v-3.5l-10.39-0.6zm2.94-2.45c0-1.47 0.67-2 2.5-2 1.84 0 2.5 0.53 2.5 2 0 1.46-0.66 2-2.5 2-1.83 0-2.5-0.54-2.5-2zm10 2.5c0 5.11 0.32 6.5 1.5 6.5 1.18 0 1.5-1.39 1.5-6.5 0-5.11-0.32-6.5-1.5-6.5-1.18 0-1.5 1.39-1.5 6.5zm5-5.5c0 0.55 1.13 1 2.5 1 2.37 0 2.5 0.3 2.5 5.5 0 3.02 0.45 5.5 1 5.5 0.55 0 1-2.48 1-5.5 0-5.2 0.14-5.5 2.5-5.5 1.38 0 2.5-0.45 2.5-1 0-0.56-2.66-1-6-1-3.33 0-6 0.44-6 1zm13.56 4.25c-1 2.89-1.98 5.81-2.18 6.5-0.21 0.69 0.3 1.25 1.12 1.25 0.83 0 1.73-0.68 2-1.5 0.28-0.83 1.63-1.5 3-1.5 1.38 0 2.73 0.67 3 1.5 0.28 0.82 1.18 1.5 2 1.5 0.83 0 1.5-0.34 1.5-0.75-0.01-0.41-1.02-3.34-2.25-6.5-1.73-4.42-2.72-5.75-4.31-5.75-1.59 0-2.48 1.2-3.88 5.25zm3.07-1c0.54-1.51 0.75-1.54 1.49-0.25 0.47 0.82 0.86 2.06 0.87 2.75 0.01 0.69-0.66 1.25-1.49 1.25-0.82 0-1.5-0.45-1.5-1 0-0.55 0.29-1.79 0.63-2.75zm9.37 2.25v6.5c7.75 0 10-0.45 10-1 0-0.55-1.46-1.11-3.25-1.25-3.18-0.25-3.25-0.36-3.5-5.5-0.18-3.89-0.64-5.25-1.75-5.25-1.18 0-1.5 1.39-1.5 6.5zm16 0v6.5c6.09 0 8.57-0.68 9.43-1.5 0.88-0.84 1.58-3.17 1.59-5.25 0.01-2.06-0.55-4.32-1.25-5.02-0.7-0.7-3.18-1.26-5.52-1.25l-4.25 0.02zm2-0.5c0-3.6 0.25-4 2.5-4 1.5 0 2.9 0.8 3.5 2 0.55 1.1 0.78 2.9 0.5 4-0.27 1.1-1.4 2.22-2.5 2.5-1.1 0.27-2.45 0.27-3 0-0.55-0.28-1-2.3-1-4.5zm-101.66 13.78c-1.01 0.21-2.41 1.14-3.1 2.05-0.7 0.92-1.28 3.02-1.29 4.67 0 1.65 0.79 3.8 1.77 4.78 1.16 1.15 2.97 1.68 5.18 1.5 1.87-0.16 3.9-1.05 4.5-1.98 0.61-0.94 0.77-2.06 0.36-2.5-0.41-0.44-1.67 0.1-2.81 1.2-1.63 1.57-2.43 1.76-3.76 0.89-1.03-0.68-1.69-2.42-1.69-4.5 0-2.87 0.39-3.44 2.5-3.71 1.53-0.2 2.79 0.29 3.25 1.25 0.42 0.86 1.2 1.57 1.75 1.57 0.55 0 0.97-0.86 0.93-1.9-0.05-1.18-1.15-2.25-2.91-2.8-1.56-0.5-3.67-0.73-4.68-0.52zm51.8 0.6c-1.06 0.64-2.54 2.41-3.28 3.95-1.16 2.38-1.14 3.17 0.18 5.48 1.11 1.95 2.48 2.78 5 3.03 2.17 0.21 4.12-0.25 5.21-1.25 0.97-0.88 1.75-2.04 1.75-2.59 0-0.55-0.67-1-1.5-1-0.82 0-1.72 0.67-2 1.5-0.27 0.83-1.45 1.39-2.64 1.25-1.19-0.14-2.6-0.93-3.14-1.75-0.54-0.83-0.7-2.74-0.35-4.25 0.48-2.1 1.23-2.75 3.13-2.75 1.38 0 2.73 0.67 3 1.5 0.28 0.82 1.18 1.5 2 1.5 0.83 0 1.51-0.34 1.52-0.75 0.01-0.41-0.55-1.48-1.25-2.37-0.7-0.9-2.26-1.86-3.49-2.14-1.22-0.28-3.08 0.01-4.14 0.64zm27.85-0.41c-1.25 0.34-2.43 1.38-2.63 2.32-0.2 0.94 0.04 2.27 0.53 2.96 0.48 0.69 2.28 1.59 4 2 1.77 0.42 3.11 1.4 3.11 2.25 0 0.93-0.94 1.5-2.5 1.5-1.37 0-2.5-0.45-2.5-1 0-0.55-0.67-1-1.5-1-0.82 0-1.5 0.34-1.51 0.75-0.01 0.41 0.55 1.32 1.25 2.01 0.69 0.7 2.64 1.26 4.31 1.25 1.68 0 3.6-0.57 4.27-1.26 0.67-0.69 1.21-2.04 1.2-3-0.01-1.08-1.56-2.42-4.05-3.5-2.21-0.96-4.02-2.2-4.01-2.75 0-0.64 1.54-0.7 4.28-0.17 3.5 0.68 4.06 0.59 3.14-0.5-0.62-0.73-2.02-1.59-3.12-1.9-1.1-0.31-3.02-0.29-4.27 0.04zm-68.99 6.53v6.5c6.98 0 9-0.45 9-1 0-0.55-1.35-1-3-1-2.97 0-3-0.06-3-5.5 0-4.22-0.34-5.5-1.5-5.5-1.18 0-1.5 1.39-1.5 6.5zm12 0c0 3.66 0.44 6.5 1 6.5 0.57 0 1-2.84 1-6.5 0-3.67-0.43-6.5-1-6.5-0.56 0-1 2.83-1 6.5zm5 0c0 5.11 0.32 6.5 1.5 6.5 1.06 0 1.58-1.25 1.75-4.2l0.25-4.19c4.27 6.5 6.18 8.39 7 8.39 1.18 0 1.5-1.39 1.5-6.5 0-5.44-0.27-6.5-1.69-6.5-1.28 0-1.71 0.91-1.75 3.69l-0.06 3.69c-3.87-5.71-5.78-7.37-6.75-7.38-1.48 0-1.75 0.97-1.75 6.5zm15 0c0 5.11 0.32 6.5 1.5 6.5 1.18 0 1.5-1.39 1.5-6.5 0-5.11-0.32-6.5-1.5-6.5-1.18 0-1.5 1.39-1.5 6.5zm21.56-1.25c-1 2.89-1.98 5.81-2.18 6.5-0.21 0.69 0.3 1.25 1.12 1.25 0.83 0 1.73-0.68 2-1.5 0.28-0.83 1.63-1.5 3-1.5 1.38 0 2.73 0.67 3 1.5 0.28 0.82 1.18 1.5 2 1.5 0.83 0 1.5-0.34 1.5-0.75-0.01-0.41-1.02-3.34-2.25-6.5-1.73-4.42-2.72-5.75-4.31-5.75-1.59 0-2.48 1.2-3.88 5.25zm3.07-1c0.54-1.51 0.75-1.54 1.49-0.25 0.47 0.82 0.86 2.06 0.87 2.75 0.01 0.69-0.66 1.25-1.49 1.25-0.82 0-1.5-0.45-1.5-1 0-0.55 0.29-1.79 0.63-2.75zm-108.33 0.68c-1.22 0.5-3.14 2.18-4.29 3.73-1.74 2.37-2.07 4.27-2.04 11.59 0.02 5.71 0.55 9.79 1.53 11.75 0.83 1.65 2.4 3.45 3.5 4 1.1 0.55 6.73 1 12.5 1 9.47 0 10.75-0.22 13.04-2.25 1.49-1.32 2.63-3.5 2.75-5.25l0.21-3-15.5-0.5v-10c14.97-0.48 15.52-0.66 15.75-2.75 0.15-1.34-0.93-3.57-2.66-5.5-2.88-3.21-3.04-3.26-12.75-3.48-5.41-0.13-10.83 0.17-12.04 0.66zm41.04 13.85c-1.01 0.21-2.41 1.14-3.1 2.05-0.7 0.92-1.28 3.02-1.29 4.67 0 1.65 0.79 3.8 1.77 4.78 1.16 1.15 2.97 1.68 5.18 1.5 1.87-0.16 3.9-1.05 4.5-1.98 0.61-0.94 0.77-2.06 0.36-2.5-0.41-0.44-1.67 0.1-2.81 1.2-1.63 1.57-2.43 1.76-3.76 0.89-1.03-0.68-1.69-2.42-1.69-4.5 0-2.87 0.39-3.44 2.5-3.71 1.53-0.2 2.79 0.29 3.25 1.25 0.42 0.86 1.2 1.57 1.75 1.57 0.55 0 0.97-0.86 0.93-1.9-0.05-1.18-1.15-2.25-2.91-2.8-1.56-0.5-3.67-0.73-4.68-0.52zm55.44 0.61c-1.77 0.9-2.34 2.15-2.58 5.63-0.24 3.42 0.12 4.78 1.5 5.74 0.99 0.7 3.01 1.26 4.48 1.25 1.48 0 3.39-0.69 4.25-1.51 0.87-0.83 1.57-1.95 1.57-2.5 0-0.55-0.67-1-1.5-1-0.82 0-1.72 0.67-2 1.5-0.27 0.82-1.4 1.5-2.5 1.5-1.15 0-2.52-1.09-3.25-2.57-0.92-1.9-0.96-3.01-0.14-4.25 0.6-0.93 2.06-1.79 3.25-1.93 1.19-0.14 2.37 0.41 2.64 1.25 0.28 0.82 1.18 1.5 2 1.5 0.83 0 1.52-0.56 1.55-1.25 0.02-0.69-0.54-1.75-1.25-2.36-0.71-0.61-2.29-1.34-3.52-1.63-1.22-0.29-3.24-0.01-4.5 0.63zm28.21-0.42c-1.25 0.34-2.43 1.38-2.63 2.32-0.2 0.94 0.04 2.27 0.53 2.96 0.48 0.69 2.28 1.59 4 2 1.77 0.42 3.11 1.4 3.11 2.25 0 0.93-0.94 1.5-2.5 1.5-1.37 0-2.5-0.45-2.5-1 0-0.55-0.67-1-1.5-1-0.82 0-1.5 0.34-1.51 0.75-0.01 0.41 0.55 1.32 1.25 2.01 0.69 0.7 2.64 1.26 4.31 1.25 1.68 0 3.6-0.57 4.27-1.26 0.67-0.69 1.21-2.04 1.2-3-0.01-1.08-1.56-2.42-4.05-3.5-2.21-0.96-4.02-2.2-4.01-2.75 0-0.64 1.54-0.7 4.28-0.17 3.5 0.68 4.06 0.59 3.14-0.5-0.62-0.73-2.02-1.59-3.12-1.9-1.1-0.31-3.02-0.29-4.27 0.04zm-71.86 5.78c-1.15 3.16-2.1 6.09-2.11 6.5-0.01 0.41 0.66 0.75 1.48 0.75 0.83 0 1.5-0.68 1.5-1.5q0-1.5 3-1.5c1.78 0 3.21 0.61 3.5 1.5 0.28 0.82 1.18 1.5 2 1.5 1.08 0 1.32-0.63 0.86-2.25-0.36-1.24-1.48-4.16-2.5-6.5-1.24-2.85-2.48-4.25-3.75-4.25-1.4 0-2.44 1.51-3.98 5.75zm4.07-3.25l0.91 2.5c0.5 1.37 0.79 2.63 0.65 2.8-0.14 0.17-0.99 0.17-1.88 0-1.31-0.24-1.44-0.79-0.65-2.8zm8.8 4c0 5.11 0.32 6.5 1.5 6.5 0.93 0 1.5-0.95 1.5-2.5 0-1.71 0.56-2.51 1.75-2.53 0.96-0.02 2.31 1.11 3 2.5 0.69 1.39 1.92 2.53 2.75 2.53 1.21 0 1.29-0.43 0.41-2.25-0.81-1.67-0.77-2.97 0.15-5 1.01-2.25 0.98-3.04-0.16-4.3-0.9-0.99-3.09-1.53-6.15-1.5l-4.75 0.05zm3.07-2.57c0.06-1.64 0.63-2 2.75-1.75 1.57 0.19 2.68 0.94 2.68 1.82 0 0.91-1.08 1.6-2.75 1.75-2.21 0.2-2.74-0.16-2.68-1.82zm14.03-1.68c-0.48 1.24-1.68 3.99-2.69 6.12-1 2.13-1.73 4.04-1.62 4.25 0.12 0.21 0.88 0.38 1.71 0.38 0.82 0 1.72-0.68 2-1.5 0.3-0.89 1.72-1.5 3.5-1.5q3 0 3 1.5c0 0.83 0.89 1.5 2 1.5 1.92 0 1.89-0.25-0.75-6.53-1.93-4.57-3.28-6.51-4.52-6.5-0.97 0.02-2.16 1.04-2.63 2.28zm2 1.69c0.06-0.58 0.39-0.87 0.75-0.63 0.36 0.24 0.99 1.39 1.4 2.56 0.6 1.71 0.36 2.13-1.25 2.13q-2 0-1.5-1.5c0.27-0.83 0.55-1.98 0.6-2.56zm26-1.69c-0.48 1.24-1.68 3.99-2.69 6.12-1 2.13-1.73 4.04-1.62 4.25 0.12 0.21 0.88 0.38 1.71 0.38 0.82 0 1.72-0.68 2-1.5 0.3-0.89 1.72-1.5 3.5-1.5q3 0 3 1.5c0 0.83 0.89 1.5 2 1.5 1.92 0 1.89-0.25-0.75-6.53-1.93-4.57-3.28-6.51-4.52-6.5-0.97 0.02-2.16 1.04-2.63 2.28zm2 1.69c0.06-0.58 0.39-0.87 0.75-0.63 0.36 0.24 0.99 1.39 1.4 2.56 0.6 1.71 0.36 2.13-1.25 2.13q-2 0-1.5-1.5c0.27-0.83 0.55-1.98 0.6-2.56z"/>
</svg>